solid 12zoll_midlow_folded_1_einzelteile_v8_horn2_einteil
facet normal 4.5586703098181836e-17 -3.9382486108659493e-16 -1.0
  outer loop
    vertex 0.2025000000000001 0.5 9.11160398425558e-18
    vertex 0.18750000000000008 0.2506814834742183 1.0661563357486474e-16
    vertex 0.18750000000000008 0.5 8.094532659100026e-18
  endloop
endfacet
facet normal 4.5586703098181836e-17 -3.9382486108659493e-16 -1.0
  outer loop
    vertex 0.18750000000000008 0.2506814834742183 1.0661563357486474e-16
    vertex 0.2025000000000001 0.5 9.11160398425558e-18
    vertex 0.2025000000000001 0.2506814834742183 1.0696616334265463e-16
  endloop
endfacet
facet normal -6.553684925432359e-16 -0.6789406080800494 -0.7341931971217746
  outer loop
    vertex 0.4300000000000004 0.4999999999999996 0.35
    vertex -0.0370646875956791 0.48904526497098716 0.3601303233142328
    vertex -0.040000000000000015 0.5 0.35
  endloop
endfacet
facet normal -6.553684925432359e-16 -0.6789406080800494 -0.7341931971217746
  outer loop
    vertex -0.0370646875956791 0.48904526497098716 0.3601303233142328
    vertex 0.4300000000000004 0.4999999999999996 0.35
    vertex 0.42706468759567945 0.48904526497098666 0.3601303233142328
  endloop
endfacet
facet normal -2.6393259327053957e-18 -3.8263871262901044e-16 -1.0
  outer loop
    vertex 0.18750000000000008 0.5 8.094532659100026e-18
    vertex 0.026804695161208706 0.2506814834742183 1.0338027804606095e-16
    vertex -0.040000000000000015 0.5 1.127986593019159e-17
  endloop
endfacet
facet normal -2.6393259327053957e-18 -3.8263871262901044e-16 -1.0
  outer loop
    vertex 0.026804695161208706 0.2506814834742183 1.0338027804606095e-16
    vertex 0.18750000000000008 0.5 8.094532659100026e-18
    vertex 0.18750000000000008 0.2506814834742183 1.0661563357486474e-16
  endloop
endfacet
facet normal 7.514005644094663e-17 0.9020515867091665 0.4316282369302026
  outer loop
    vertex 0.02633219377285313 0.25244488266220816 0.12399620435565419
    vertex 0.3617451940332556 0.24526959627135364 0.13899169797765656
    vertex 0.3636678062271471 0.25244488266220816 0.12399620435565416
  endloop
endfacet
facet normal 7.514005644094663e-17 0.9020515867091665 0.4316282369302026
  outer loop
    vertex 0.3617451940332556 0.24526959627135364 0.13899169797765656
    vertex 0.02633219377285313 0.25244488266220816 0.12399620435565419
    vertex 0.028254805966744616 0.24526959627135367 0.13899169797765656
  endloop
endfacet
facet normal -1.5020013616050739e-15 0.9998807618856322 -0.015442215223469627
  outer loop
    vertex 0.18750000000000008 0.25259769835247875 0.1240745815729619
    vertex 0.2025000000000001 0.2506814834742183 1.0696616334265463e-16
    vertex 0.18750000000000008 0.2506814834742183 1.0661563357486474e-16
  endloop
endfacet
facet normal -1.5020013616050739e-15 0.9998807618856322 -0.015442215223469627
  outer loop
    vertex 0.2025000000000001 0.2506814834742183 1.0696616334265463e-16
    vertex 0.18750000000000008 0.25259769835247875 0.1240745815729619
    vertex 0.2025000000000001 0.2525976983524788 0.1240745815729619
  endloop
endfacet
facet normal -6.209853527546837e-17 0.45636365594005024 -0.8897933544014764
  outer loop
    vertex 0.18750000000000008 0.25259769835247875 0.1240745815729619
    vertex 0.3636678062271471 0.25244488266220816 0.12399620435565416
    vertex 0.02633219377285313 0.25244488266220816 0.12399620435565419
  endloop
endfacet
facet normal -6.209853527546837e-17 0.45636365594005024 -0.8897933544014764
  outer loop
    vertex 0.3636678062271471 0.25244488266220816 0.12399620435565416
    vertex 0.18750000000000008 0.25259769835247875 0.1240745815729619
    vertex 0.2025000000000001 0.2525976983524788 0.1240745815729619
  endloop
endfacet
facet normal 2.647458413599058e-16 -0.7546237401065906 -0.6561577637028619
  outer loop
    vertex 0.18750000000000008 0.2506814834742183 1.0661563357486474e-16
    vertex 0.06587229995371602 0.10487919745855978 0.1676820308706304
    vertex 0.026804695161208706 0.2506814834742183 1.0338027804606095e-16
  endloop
endfacet
facet normal 2.647458413599058e-16 -0.7546237401065906 -0.6561577637028619
  outer loop
    vertex 0.06587229995371602 0.10487919745855978 0.1676820308706304
    vertex 0.18750000000000008 0.2506814834742183 1.0661563357486474e-16
    vertex 0.2025000000000001 0.2506814834742183 1.0696616334265463e-16
  endloop
endfacet
facet normal 2.647458413599058e-16 -0.7546237401065906 -0.6561577637028619
  outer loop
    vertex 0.06587229995371602 0.10487919745855978 0.1676820308706304
    vertex 0.2025000000000001 0.2506814834742183 1.0696616334265463e-16
    vertex 0.36319530483879153 0.2506814834742183 1.102015188714584e-16
  endloop
endfacet
facet normal 2.647458413599058e-16 -0.7546237401065906 -0.6561577637028619
  outer loop
    vertex 0.06587229995371602 0.10487919745855978 0.1676820308706304
    vertex 0.36319530483879153 0.2506814834742183 1.102015188714584e-16
    vertex 0.3241277000462845 0.10487919745856 0.1676820308706304
  endloop
endfacet
facet normal -0.0 -0.0 1.0
  outer loop
    vertex 0.065872299953716 0.1048791974585598 0.82
    vertex 0.4300000000000004 0.4999999999999996 0.82
    vertex -0.040000000000000015 0.5 0.82
  endloop
endfacet
facet normal -0.0 -0.0 1.0
  outer loop
    vertex 0.4300000000000004 0.4999999999999996 0.82
    vertex 0.065872299953716 0.1048791974585598 0.82
    vertex 0.32412770004628455 0.10487919745856004 0.82
  endloop
endfacet
facet normal 0.0 0.0 -1.0
  outer loop
    vertex 0.08 0.4999999999999997 0.78
    vertex 0.08515304774212469 0.18499999999999983 0.78
    vertex 0.0 0.4999999999999997 0.78
  endloop
endfacet
facet normal 0.0 0.0 -1.0
  outer loop
    vertex 0.08515304774212469 0.18499999999999983 0.78
    vertex 0.08 0.4999999999999997 0.78
    vertex 0.31000000000000044 0.4999999999999996 0.78
  endloop
endfacet
facet normal 0.0 0.0 -1.0
  outer loop
    vertex 0.08515304774212469 0.18499999999999983 0.78
    vertex 0.31000000000000044 0.4999999999999996 0.78
    vertex 0.3055960043841968 0.1849999999999997 0.78
  endloop
endfacet
facet normal 0.0 0.0 -1.0
  outer loop
    vertex 0.3055960043841968 0.1849999999999997 0.78
    vertex 0.31000000000000044 0.4999999999999996 0.78
    vertex 0.39000000000000046 0.4999999999999997 0.78
  endloop
endfacet
facet normal -9.487295630367948e-16 -0.4900119591741416 -0.8717157104620287
  outer loop
    vertex 0.07375644347017875 0.32150472986079737 0.27684644431795424
    vertex 0.05977038431953061 0.2920709580180261 0.2933918616294268
    vertex -0.017865643784686133 0.4173934580116206 0.2229451288087986
  endloop
endfacet
facet normal 3.907175844271332e-16 -0.4900119591741412 -0.871715710462029
  outer loop
    vertex 0.0960050506338835 0.3467800827472923 0.2626385723729084
    vertex 0.07375644347017875 0.32150472986079737 0.27684644431795424
    vertex -0.017865643784686133 0.4173934580116206 0.2229451288087986
  endloop
endfacet
facet normal -4.270119397908615e-16 -0.49001195917414186 -0.8717157104620287
  outer loop
    vertex 0.12500000000000008 0.36617454314779174 0.25173648878772553
    vertex 0.0960050506338835 0.3467800827472923 0.2626385723729084
    vertex -0.017865643784686133 0.4173934580116206 0.2229451288087986
  endloop
endfacet
facet normal -1.6047088216534424e-16 -0.4900119591741416 -0.8717157104620289
  outer loop
    vertex 0.1587653336856472 0.378366410636863 0.24488315254219103
    vertex 0.12500000000000008 0.36617454314779174 0.25173648878772553
    vertex -0.017865643784686133 0.4173934580116206 0.2229451288087986
  endloop
endfacet
facet normal -4.1882716901762536e-16 -0.49001195917414014 -0.8717157104620297
  outer loop
    vertex 0.4078656437846863 0.41739345801162053 0.2229451288087986
    vertex 0.23123466631435305 0.378366410636863 0.24488315254219098
    vertex 0.19500000000000006 0.38252482959313944 0.2425456071757643
  endloop
endfacet
facet normal 0.0 -0.4900119591741425 -0.8717157104620283
  outer loop
    vertex 0.4078656437846863 0.41739345801162053 0.2229451288087986
    vertex 0.3350000000000002 0.2604846301284555 0.3111472814601441
    vertex 0.33022961568046977 0.2920709580180262 0.29339186162942676
  endloop
endfacet
facet normal 7.99716561633331e-16 -0.4900119591741411 -0.871715710462029
  outer loop
    vertex 0.07375644347017879 0.19946453039611342 0.3454481186023341
    vertex 0.065872299953716 0.1048791974585598 0.39861676492316683
    vertex 0.05977038431953066 0.2288983022388847 0.3289027012908616
  endloop
endfacet
facet normal 2.186116346054246e-15 -0.4900119591741411 -0.871715710462029
  outer loop
    vertex 0.09600505063388359 0.17418917750961846 0.35965599054738
    vertex 0.065872299953716 0.1048791974585598 0.39861676492316683
    vertex 0.07375644347017879 0.19946453039611342 0.3454481186023341
  endloop
endfacet
facet normal -4.310191004778213e-16 -0.4900119591741403 -0.8717157104620294
  outer loop
    vertex 0.12500000000000022 0.15479471710911902 0.37055807413256275
    vertex 0.065872299953716 0.1048791974585598 0.39861676492316683
    vertex 0.09600505063388359 0.17418917750961846 0.35965599054738
  endloop
endfacet
facet normal 1.4192331580549717e-15 -0.49001195917414175 -0.8717157104620287
  outer loop
    vertex 0.15876533368564733 0.14260284962004785 0.37741141037809733
    vertex 0.065872299953716 0.1048791974585598 0.39861676492316683
    vertex 0.12500000000000022 0.15479471710911902 0.37055807413256275
  endloop
endfacet
facet normal 0.0 -0.49001195917414186 -0.8717157104620287
  outer loop
    vertex 0.32412770004628466 0.10487919745856004 0.39861676492316683
    vertex 0.1950000000000003 0.13844443066377146 0.37974895574452405
    vertex 0.23123466631435324 0.14260284962004788 0.37741141037809733
  endloop
endfacet
facet normal -3.3393721365999375e-16 -0.490011959174142 -0.8717157104620287
  outer loop
    vertex 0.32412770004628466 0.10487919745856004 0.39861676492316683
    vertex 0.23123466631435324 0.14260284962004788 0.37741141037809733
    vertex 0.26500000000000035 0.1547947171091191 0.37055807413256275
  endloop
endfacet
facet normal 1.436730334926066e-16 -0.4900119591741416 -0.8717157104620289
  outer loop
    vertex 0.32412770004628466 0.10487919745856004 0.39861676492316683
    vertex 0.26500000000000035 0.1547947171091191 0.37055807413256275
    vertex 0.293994949366117 0.1741891775096186 0.3596559905473799
  endloop
endfacet
facet normal 0.0 -0.49001195917414164 -0.8717157104620287
  outer loop
    vertex 0.32412770004628466 0.10487919745856004 0.39861676492316683
    vertex 0.293994949366117 0.1741891775096186 0.3596559905473799
    vertex 0.31624355652982167 0.1994645303961135 0.3454481186023341
  endloop
endfacet
facet normal -2.8989725359207977e-15 -0.49001195917414186 -0.8717157104620287
  outer loop
    vertex 0.3302296156804699 0.22889830223888483 0.32890270129086147
    vertex 0.32412770004628466 0.10487919745856004 0.39861676492316683
    vertex 0.31624355652982167 0.1994645303961135 0.3454481186023341
  endloop
endfacet
facet normal 0.9659258262890684 -0.25881904510252074 -1.4325270957087203e-16
  outer loop
    vertex 0.4078656437846863 0.41739345801162053 0.2229451288087986
    vertex 0.32412770004628455 0.10487919745856004 0.82
    vertex 0.32412770004628466 0.10487919745856004 0.39861676492316683
  endloop
endfacet
facet normal 0.9659258262890684 -0.25881904510252074 -1.4325270957087203e-16
  outer loop
    vertex 0.32412770004628455 0.10487919745856004 0.82
    vertex 0.4078656437846863 0.41739345801162053 0.2229451288087986
    vertex 0.4300000000000004 0.4999999999999996 0.82
  endloop
endfacet
facet normal 0.9659258262890684 -0.25881904510252074 -1.4325270957087203e-16
  outer loop
    vertex 0.4300000000000004 0.4999999999999996 0.82
    vertex 0.4078656437846863 0.41739345801162053 0.2229451288087986
    vertex 0.42706468759567945 0.48904526497098666 0.3601303233142328
  endloop
endfacet
facet normal 0.9659258262890684 -0.25881904510252074 -1.4325270957087203e-16
  outer loop
    vertex 0.4300000000000004 0.4999999999999996 0.82
    vertex 0.42706468759567945 0.48904526497098666 0.3601303233142328
    vertex 0.4300000000000004 0.4999999999999996 0.35
  endloop
endfacet
facet normal -0.9659258262890682 -0.25881904510252085 -1.2456757353988827e-17
  outer loop
    vertex -0.040000000000000015 0.5 0.82
    vertex 0.065872299953716 0.1048791974585598 0.39861676492316683
    vertex 0.065872299953716 0.1048791974585598 0.82
  endloop
endfacet
facet normal -0.9659258262890682 -0.25881904510252085 -1.2456757353988827e-17
  outer loop
    vertex 0.065872299953716 0.1048791974585598 0.39861676492316683
    vertex -0.040000000000000015 0.5 0.82
    vertex -0.017865643784686133 0.4173934580116206 0.2229451288087986
  endloop
endfacet
facet normal -0.9659258262890682 -0.25881904510252085 -1.2456757353988827e-17
  outer loop
    vertex -0.017865643784686133 0.4173934580116206 0.2229451288087986
    vertex -0.040000000000000015 0.5 0.82
    vertex -0.0370646875956791 0.48904526497098716 0.3601303233142328
  endloop
endfacet
facet normal -0.9659258262890682 -0.25881904510252085 -1.2456757353988827e-17
  outer loop
    vertex -0.0370646875956791 0.48904526497098716 0.3601303233142328
    vertex -0.040000000000000015 0.5 0.82
    vertex -0.040000000000000015 0.5 0.35
  endloop
endfacet
facet normal 1.3060016484303419e-17 -3.9637786529838746e-16 -1.0
  outer loop
    vertex 0.4300000000000002 0.5 1.127986593019159e-17
    vertex 0.2025000000000001 0.2506814834742183 1.0696616334265463e-16
    vertex 0.2025000000000001 0.5 9.11160398425558e-18
  endloop
endfacet
facet normal 1.3060016484303419e-17 -3.9637786529838746e-16 -1.0
  outer loop
    vertex 0.2025000000000001 0.2506814834742183 1.0696616334265463e-16
    vertex 0.4300000000000002 0.5 1.127986593019159e-17
    vertex 0.36319530483879153 0.2506814834742183 1.102015188714584e-16
  endloop
endfacet
facet normal -0.9659258262890682 -0.2588190451025208 0.0
  outer loop
    vertex 0.028254805966744616 0.24526959627135367 0.13899169797765656
    vertex 0.026804695161208706 0.2506814834742183 1.0338027804606095e-16
    vertex 0.06587229995371602 0.10487919745855978 0.1676820308706304
  endloop
endfacet
facet normal -0.9659258262890682 -0.2588190451025208 0.0
  outer loop
    vertex 0.026804695161208706 0.2506814834742183 1.0338027804606095e-16
    vertex 0.028254805966744616 0.24526959627135367 0.13899169797765656
    vertex 0.02633219377285313 0.25244488266220816 0.12399620435565419
  endloop
endfacet
facet normal -0.9659258262890682 -0.2588190451025208 0.0
  outer loop
    vertex 0.026804695161208706 0.2506814834742183 1.0338027804606095e-16
    vertex 0.02633219377285313 0.25244488266220816 0.12399620435565419
    vertex -0.040000000000000015 0.5 1.127986593019159e-17
  endloop
endfacet
facet normal -0.9659258262890682 -0.2588190451025208 0.0
  outer loop
    vertex -0.040000000000000015 0.5 1.127986593019159e-17
    vertex 0.02633219377285313 0.25244488266220816 0.12399620435565419
    vertex -0.02121118758639893 0.4298791974585599 0.21500000000000005
  endloop
endfacet
facet normal -0.9659258262890682 -0.2588190451025208 0.0
  outer loop
    vertex -0.040000000000000015 0.5 1.127986593019159e-17
    vertex -0.02121118758639893 0.4298791974585599 0.21500000000000005
    vertex -0.040000000000000015 0.5 0.35
  endloop
endfacet
facet normal 9.50515973059321e-16 -0.4563636559399081 0.8897933544015494
  outer loop
    vertex 0.2025000000000001 0.2525976983524788 0.1240745815729619
    vertex 0.18750000000000008 0.4298791974585599 0.21500000000000005
    vertex 0.18750000000000008 0.25259769835247875 0.1240745815729619
  endloop
endfacet
facet normal 9.50515973059321e-16 -0.4563636559399081 0.8897933544015494
  outer loop
    vertex 0.18750000000000008 0.4298791974585599 0.21500000000000005
    vertex 0.2025000000000001 0.2525976983524788 0.1240745815729619
    vertex 0.20250000000000007 0.4298791974585599 0.21500000000000005
  endloop
endfacet
facet normal 4.826808657098964e-16 -0.4900119591741399 -0.8717157104620297
  outer loop
    vertex 0.15876533368564733 0.14260284962004785 0.37741141037809733
    vertex 0.32412770004628466 0.10487919745856004 0.39861676492316683
    vertex 0.065872299953716 0.1048791974585598 0.39861676492316683
  endloop
endfacet
facet normal 4.826808657098964e-16 -0.4900119591741399 -0.8717157104620297
  outer loop
    vertex 0.32412770004628466 0.10487919745856004 0.39861676492316683
    vertex 0.15876533368564733 0.14260284962004785 0.37741141037809733
    vertex 0.1950000000000003 0.13844443066377146 0.37974895574452405
  endloop
endfacet
facet normal 0.9659258262890684 -0.2588190451025206 -7.01066829446288e-16
  outer loop
    vertex 0.36319530483879153 0.2506814834742183 1.102015188714584e-16
    vertex 0.3617451940332556 0.24526959627135364 0.13899169797765656
    vertex 0.3241277000462845 0.10487919745856 0.1676820308706304
  endloop
endfacet
facet normal 0.9659258262890684 -0.2588190451025206 -7.01066829446288e-16
  outer loop
    vertex 0.3617451940332556 0.24526959627135364 0.13899169797765656
    vertex 0.36319530483879153 0.2506814834742183 1.102015188714584e-16
    vertex 0.3636678062271471 0.25244488266220816 0.12399620435565416
  endloop
endfacet
facet normal 0.9659258262890684 -0.2588190451025206 -7.01066829446288e-16
  outer loop
    vertex 0.3636678062271471 0.25244488266220816 0.12399620435565416
    vertex 0.36319530483879153 0.2506814834742183 1.102015188714584e-16
    vertex 0.4300000000000002 0.5 1.127986593019159e-17
  endloop
endfacet
facet normal 0.9659258262890684 -0.2588190451025206 -7.01066829446288e-16
  outer loop
    vertex 0.3636678062271471 0.25244488266220816 0.12399620435565416
    vertex 0.4300000000000002 0.5 1.127986593019159e-17
    vertex 0.4112111875863991 0.4298791974585599 0.21500000000000005
  endloop
endfacet
facet normal 0.9659258262890684 -0.2588190451025206 -7.01066829446288e-16
  outer loop
    vertex 0.4112111875863991 0.4298791974585599 0.21500000000000005
    vertex 0.4300000000000002 0.5 1.127986593019159e-17
    vertex 0.4300000000000004 0.4999999999999996 0.35
  endloop
endfacet
facet normal 1.0 -0.0 -0.0
  outer loop
    vertex 0.18750000000000008 0.5 8.094532659100026e-18
    vertex 0.18750000000000008 0.25259769835247875 0.1240745815729619
    vertex 0.18750000000000008 0.2506814834742183 1.0661563357486474e-16
  endloop
endfacet
facet normal 1.0 -0.0 -0.0
  outer loop
    vertex 0.18750000000000008 0.25259769835247875 0.1240745815729619
    vertex 0.18750000000000008 0.5 8.094532659100026e-18
    vertex 0.18750000000000008 0.4298791974585599 0.21500000000000005
  endloop
endfacet
facet normal 5.455010288629999e-16 -0.4900119591741425 -0.8717157104620283
  outer loop
    vertex 0.4078656437846863 0.41739345801162053 0.2229451288087986
    vertex 0.3162435565298216 0.3215047298607975 0.2768464443179542
    vertex 0.2939949493661168 0.3467800827472924 0.2626385723729083
  endloop
endfacet
facet normal 5.455010288629999e-16 -0.4900119591741425 -0.8717157104620283
  outer loop
    vertex 0.3162435565298216 0.3215047298607975 0.2768464443179542
    vertex 0.4078656437846863 0.41739345801162053 0.2229451288087986
    vertex 0.33022961568046977 0.2920709580180262 0.29339186162942676
  endloop
endfacet
facet normal -1.0223757658959007e-16 -0.490011959174142 -0.8717157104620284
  outer loop
    vertex 0.4078656437846863 0.41739345801162053 0.2229451288087986
    vertex 0.1587653336856472 0.378366410636863 0.24488315254219103
    vertex -0.017865643784686133 0.4173934580116206 0.2229451288087986
  endloop
endfacet
facet normal -1.0223757658959007e-16 -0.490011959174142 -0.8717157104620284
  outer loop
    vertex 0.1587653336856472 0.378366410636863 0.24488315254219103
    vertex 0.4078656437846863 0.41739345801162053 0.2229451288087986
    vertex 0.19500000000000006 0.38252482959313944 0.2425456071757643
  endloop
endfacet
facet normal 6.518444572357489e-16 0.8863809326490247 -0.4629566310533257
  outer loop
    vertex -0.0370646875956791 0.48904526497098716 0.3601303233142328
    vertex 0.4078656437846863 0.41739345801162053 0.2229451288087986
    vertex -0.017865643784686133 0.4173934580116206 0.2229451288087986
  endloop
endfacet
facet normal 6.518444572357489e-16 0.8863809326490247 -0.4629566310533257
  outer loop
    vertex 0.4078656437846863 0.41739345801162053 0.2229451288087986
    vertex -0.0370646875956791 0.48904526497098716 0.3601303233142328
    vertex 0.42706468759567945 0.48904526497098666 0.3601303233142328
  endloop
endfacet
facet normal -1.0 -5.905786014628254e-17 -1.7463571082052206e-16
  outer loop
    vertex 0.2025000000000001 0.2525976983524788 0.1240745815729619
    vertex 0.2025000000000001 0.5 9.11160398425558e-18
    vertex 0.2025000000000001 0.2506814834742183 1.0696616334265463e-16
  endloop
endfacet
facet normal -1.0 -5.905786014628254e-17 -1.7463571082052206e-16
  outer loop
    vertex 0.2025000000000001 0.5 9.11160398425558e-18
    vertex 0.2025000000000001 0.2525976983524788 0.1240745815729619
    vertex 0.20250000000000007 0.4298791974585599 0.21500000000000005
  endloop
endfacet
facet normal 7.699201105928402e-17 -0.4563636559399083 0.8897933544015494
  outer loop
    vertex 0.2025000000000001 0.2525976983524788 0.1240745815729619
    vertex 0.4112111875863991 0.4298791974585599 0.21500000000000005
    vertex 0.20250000000000007 0.4298791974585599 0.21500000000000005
  endloop
endfacet
facet normal 7.699201105928402e-17 -0.4563636559399083 0.8897933544015494
  outer loop
    vertex 0.4112111875863991 0.4298791974585599 0.21500000000000005
    vertex 0.2025000000000001 0.2525976983524788 0.1240745815729619
    vertex 0.3636678062271471 0.25244488266220816 0.12399620435565416
  endloop
endfacet
facet normal -1.0888493819562896e-16 -0.49001195917414186 -0.8717157104620287
  outer loop
    vertex 0.4078656437846863 0.41739345801162053 0.2229451288087986
    vertex 0.2650000000000001 0.36617454314779185 0.25173648878772553
    vertex 0.23123466631435305 0.378366410636863 0.24488315254219098
  endloop
endfacet
facet normal -1.0888493819562896e-16 -0.49001195917414186 -0.8717157104620287
  outer loop
    vertex 0.2650000000000001 0.36617454314779185 0.25173648878772553
    vertex 0.4078656437846863 0.41739345801162053 0.2229451288087986
    vertex 0.2939949493661168 0.3467800827472924 0.2626385723729083
  endloop
endfacet
facet normal 9.60897818110545e-16 -1.0 9.922939182398595e-32
  outer loop
    vertex 0.32412770004628455 0.10487919745856004 0.82
    vertex 0.065872299953716 0.1048791974585598 0.39861676492316683
    vertex 0.32412770004628466 0.10487919745856004 0.39861676492316683
  endloop
endfacet
facet normal 9.60897818110545e-16 -1.0 9.922939182398595e-32
  outer loop
    vertex 0.065872299953716 0.1048791974585598 0.39861676492316683
    vertex 0.32412770004628455 0.10487919745856004 0.82
    vertex 0.065872299953716 0.1048791974585598 0.82
  endloop
endfacet
facet normal -8.661601244169451e-17 -0.4563636559399082 0.8897933544015494
  outer loop
    vertex 0.02633219377285313 0.25244488266220816 0.12399620435565419
    vertex 0.18750000000000008 0.4298791974585599 0.21500000000000005
    vertex -0.02121118758639893 0.4298791974585599 0.21500000000000005
  endloop
endfacet
facet normal -8.661601244169451e-17 -0.4563636559399082 0.8897933544015494
  outer loop
    vertex 0.18750000000000008 0.4298791974585599 0.21500000000000005
    vertex 0.02633219377285313 0.25244488266220816 0.12399620435565419
    vertex 0.18750000000000008 0.25259769835247875 0.1240745815729619
  endloop
endfacet
facet normal -5.3794219453758615e-17 -0.9507140588057378 -0.3100689897250613
  outer loop
    vertex 0.2025000000000001 0.5 9.11160398425558e-18
    vertex 0.18750000000000008 0.4298791974585599 0.21500000000000005
    vertex 0.18750000000000008 0.5 8.094532659100026e-18
  endloop
endfacet
facet normal -5.3794219453758615e-17 -0.9507140588057378 -0.3100689897250613
  outer loop
    vertex 0.18750000000000008 0.4298791974585599 0.21500000000000005
    vertex 0.2025000000000001 0.5 9.11160398425558e-18
    vertex 0.20250000000000007 0.4298791974585599 0.21500000000000005
  endloop
endfacet
facet normal 1.5801696873487403e-15 -0.4900119591741415 -0.8717157104620288
  outer loop
    vertex 0.05977038431953061 0.2920709580180261 0.2933918616294268
    vertex 0.055000000000000195 0.26048463012845535 0.3111472814601442
    vertex -0.017865643784686133 0.4173934580116206 0.2229451288087986
  endloop
endfacet
facet normal 1.5801696873487403e-15 -0.4900119591741415 -0.8717157104620288
  outer loop
    vertex 0.055000000000000195 0.26048463012845535 0.3111472814601442
    vertex 0.065872299953716 0.1048791974585598 0.39861676492316683
    vertex -0.017865643784686133 0.4173934580116206 0.2229451288087986
  endloop
endfacet
facet normal 1.5801696873487403e-15 -0.4900119591741415 -0.8717157104620288
  outer loop
    vertex 0.065872299953716 0.1048791974585598 0.39861676492316683
    vertex 0.055000000000000195 0.26048463012845535 0.3111472814601442
    vertex 0.05977038431953066 0.2288983022388847 0.3289027012908616
  endloop
endfacet
facet normal -3.678556559258225e-16 -0.8874298021253533 0.46094288832756314
  outer loop
    vertex 0.4300000000000004 0.4999999999999996 0.35
    vertex 0.20250000000000007 0.4298791974585599 0.21500000000000005
    vertex 0.4112111875863991 0.4298791974585599 0.21500000000000005
  endloop
endfacet
facet normal -3.678556559258225e-16 -0.8874298021253533 0.46094288832756314
  outer loop
    vertex 0.20250000000000007 0.4298791974585599 0.21500000000000005
    vertex 0.4300000000000004 0.4999999999999996 0.35
    vertex 0.18750000000000008 0.4298791974585599 0.21500000000000005
  endloop
endfacet
facet normal -3.678556559258225e-16 -0.8874298021253533 0.46094288832756314
  outer loop
    vertex 0.18750000000000008 0.4298791974585599 0.21500000000000005
    vertex 0.4300000000000004 0.4999999999999996 0.35
    vertex -0.02121118758639893 0.4298791974585599 0.21500000000000005
  endloop
endfacet
facet normal -3.678556559258225e-16 -0.8874298021253533 0.46094288832756314
  outer loop
    vertex -0.02121118758639893 0.4298791974585599 0.21500000000000005
    vertex 0.4300000000000004 0.4999999999999996 0.35
    vertex -0.040000000000000015 0.5 0.35
  endloop
endfacet
facet normal -1.973286059132114e-15 -0.49001195917414164 -0.8717157104620287
  outer loop
    vertex 0.3302296156804699 0.22889830223888483 0.32890270129086147
    vertex 0.4078656437846863 0.41739345801162053 0.2229451288087986
    vertex 0.32412770004628466 0.10487919745856004 0.39861676492316683
  endloop
endfacet
facet normal -1.973286059132114e-15 -0.49001195917414164 -0.8717157104620287
  outer loop
    vertex 0.4078656437846863 0.41739345801162053 0.2229451288087986
    vertex 0.3302296156804699 0.22889830223888483 0.32890270129086147
    vertex 0.3350000000000002 0.2604846301284555 0.3111472814601441
  endloop
endfacet
facet normal 1.0233818400926687e-16 1.0 -3.4707279785204893e-16
  outer loop
    vertex 0.08515304774212469 0.18499999999999983 0.78
    vertex 0.3055960043841968 0.1849999999999997 0.39
    vertex 0.0851530477421248 0.18499999999999958 0.39
  endloop
endfacet
facet normal 1.0233818400926687e-16 1.0 -3.4707279785204893e-16
  outer loop
    vertex 0.3055960043841968 0.1849999999999997 0.39
    vertex 0.08515304774212469 0.18499999999999983 0.78
    vertex 0.3055960043841968 0.1849999999999997 0.78
  endloop
endfacet
facet normal 5.414335646491959e-16 1.0 1.0616344404886203e-16
  outer loop
    vertex -0.054999999999999945 0.515 -0.015000000000000006
    vertex -0.039999999999999945 0.515 -5.639932965095795e-18
    vertex 0.4450000000000004 0.5149999999999998 -0.015000000000000006
  endloop
endfacet
facet normal 5.414335646491959e-16 1.0 1.0616344404886203e-16
  outer loop
    vertex -0.039999999999999945 0.515 -5.639932965095795e-18
    vertex -0.054999999999999945 0.515 -0.015000000000000006
    vertex -0.054999999999999945 0.515 0.835
  endloop
endfacet
facet normal 5.414335646491959e-16 1.0 1.0616344404886203e-16
  outer loop
    vertex -0.039999999999999945 0.515 -5.639932965095795e-18
    vertex -0.054999999999999945 0.515 0.835
    vertex -0.039999999999999945 0.515 0.82
  endloop
endfacet
facet normal 5.414335646491959e-16 1.0 1.0616344404886203e-16
  outer loop
    vertex -0.039999999999999945 0.515 0.82
    vertex -0.054999999999999945 0.515 0.835
    vertex 0.4300000000000004 0.5149999999999997 0.82
  endloop
endfacet
facet normal 5.414335646491959e-16 1.0 1.0616344404886203e-16
  outer loop
    vertex 0.4450000000000004 0.5149999999999998 -0.015000000000000006
    vertex 0.4300000000000004 0.5149999999999998 -5.639932965095795e-18
    vertex 0.4450000000000004 0.5149999999999997 0.835
  endloop
endfacet
facet normal 5.414335646491959e-16 1.0 1.0616344404886203e-16
  outer loop
    vertex 0.4300000000000004 0.5149999999999998 -5.639932965095795e-18
    vertex 0.4450000000000004 0.5149999999999998 -0.015000000000000006
    vertex -0.039999999999999945 0.515 -5.639932965095795e-18
  endloop
endfacet
facet normal 5.414335646491959e-16 1.0 1.0616344404886203e-16
  outer loop
    vertex 0.4450000000000004 0.5149999999999997 0.835
    vertex 0.4300000000000004 0.5149999999999998 -5.639932965095795e-18
    vertex 0.4300000000000004 0.5149999999999997 0.82
  endloop
endfacet
facet normal 5.414335646491959e-16 1.0 1.0616344404886203e-16
  outer loop
    vertex 0.4450000000000004 0.5149999999999997 0.835
    vertex 0.4300000000000004 0.5149999999999997 0.82
    vertex -0.054999999999999945 0.515 0.835
  endloop
endfacet
facet normal -0.0 -0.0 1.0
  outer loop
    vertex 0.058910775726649954 0.08987919745855898 0.835
    vertex 0.4450000000000004 0.5149999999999997 0.835
    vertex -0.054999999999999945 0.515 0.835
  endloop
endfacet
facet normal -0.0 -0.0 1.0
  outer loop
    vertex 0.4450000000000004 0.5149999999999997 0.835
    vertex 0.058910775726649954 0.08987919745855898 0.835
    vertex 0.3310892242733505 0.08987919745855862 0.835
  endloop
endfacet
facet normal 4.5037756560170325e-32 9.94999468041677e-17 -1.0
  outer loop
    vertex 0.4450000000000004 0.5149999999999998 -0.015000000000000006
    vertex 0.058910775726649954 0.08987919745855898 -0.015000000000000048
    vertex -0.054999999999999945 0.515 -0.015000000000000006
  endloop
endfacet
facet normal 4.5037756560170325e-32 9.94999468041677e-17 -1.0
  outer loop
    vertex 0.058910775726649954 0.08987919745855898 -0.015000000000000048
    vertex 0.4450000000000004 0.5149999999999998 -0.015000000000000006
    vertex 0.3310892242733505 0.0898791974585588 -0.015000000000000048
  endloop
endfacet
facet normal -9.946297503350945e-16 -1.0 -1.0616344404886203e-16
  outer loop
    vertex 0.3310892242733505 0.08987919745855862 0.835
    vertex 0.058910775726649954 0.08987919745855898 -0.015000000000000048
    vertex 0.3310892242733505 0.0898791974585588 -0.015000000000000048
  endloop
endfacet
facet normal -9.946297503350945e-16 -1.0 -1.0616344404886203e-16
  outer loop
    vertex 0.058910775726649954 0.08987919745855898 -0.015000000000000048
    vertex 0.3310892242733505 0.08987919745855862 0.835
    vertex 0.058910775726649954 0.08987919745855898 0.835
  endloop
endfacet
facet normal 3.910936774297476e-17 0.09950371902099873 -0.9950371902099893
  outer loop
    vertex 0.31000000000000044 0.4999999999999996 0.78
    vertex 0.1700000000000002 0.29999999999999966 0.76
    vertex 0.08 0.4999999999999997 0.78
  endloop
endfacet
facet normal 3.910936774297476e-17 0.09950371902099873 -0.9950371902099893
  outer loop
    vertex 0.1700000000000002 0.29999999999999966 0.76
    vertex 0.31000000000000044 0.4999999999999996 0.78
    vertex 0.22000000000000022 0.29999999999999966 0.76
  endloop
endfacet
facet normal 1.0 -4.887941903083017e-15 2.252716162678156e-33
  outer loop
    vertex -0.039999999999999945 0.515 -5.639932965095795e-18
    vertex -0.040000000000000015 0.5 0.35
    vertex -0.040000000000000015 0.5 1.127986593019159e-17
  endloop
endfacet
facet normal 1.0 -4.887941903083017e-15 2.252716162678156e-33
  outer loop
    vertex -0.040000000000000015 0.5 0.35
    vertex -0.039999999999999945 0.515 -5.639932965095795e-18
    vertex -0.040000000000000015 0.5 0.82
  endloop
endfacet
facet normal 1.0 -4.887941903083017e-15 2.252716162678156e-33
  outer loop
    vertex -0.040000000000000015 0.5 0.82
    vertex -0.039999999999999945 0.515 -5.639932965095795e-18
    vertex -0.039999999999999945 0.515 0.82
  endloop
endfacet
facet normal 3.451404304563345e-20 -1.0387600060687047e-15 -1.0
  outer loop
    vertex -0.039999999999999945 0.515 -5.639932965095795e-18
    vertex 0.18750000000000008 0.5 8.094532659100026e-18
    vertex -0.040000000000000015 0.5 1.127986593019159e-17
  endloop
endfacet
facet normal 3.451404304563345e-20 -1.0387600060687047e-15 -1.0
  outer loop
    vertex 0.18750000000000008 0.5 8.094532659100026e-18
    vertex -0.039999999999999945 0.515 -5.639932965095795e-18
    vertex 0.4300000000000004 0.5149999999999998 -5.639932965095795e-18
  endloop
endfacet
facet normal 3.451404304563345e-20 -1.0387600060687047e-15 -1.0
  outer loop
    vertex 0.18750000000000008 0.5 8.094532659100026e-18
    vertex 0.4300000000000004 0.5149999999999998 -5.639932965095795e-18
    vertex 0.2025000000000001 0.5 9.11160398425558e-18
  endloop
endfacet
facet normal 3.451404304563345e-20 -1.0387600060687047e-15 -1.0
  outer loop
    vertex 0.2025000000000001 0.5 9.11160398425558e-18
    vertex 0.4300000000000004 0.5149999999999998 -5.639932965095795e-18
    vertex 0.4300000000000002 0.5 1.127986593019159e-17
  endloop
endfacet
facet normal -0.0 -0.0 1.0
  outer loop
    vertex 0.4300000000000004 0.4999999999999996 0.82
    vertex -0.039999999999999945 0.515 0.82
    vertex -0.040000000000000015 0.5 0.82
  endloop
endfacet
facet normal -0.0 -0.0 1.0
  outer loop
    vertex -0.039999999999999945 0.515 0.82
    vertex 0.4300000000000004 0.4999999999999996 0.82
    vertex 0.4300000000000004 0.5149999999999997 0.82
  endloop
endfacet
facet normal 1.0 -3.8715429977878716e-15 -1.0430699971013098e-16
  outer loop
    vertex 0.4300000000000002 0.5 1.127986593019159e-17
    vertex 0.4300000000000004 0.4999999999999996 0.82
    vertex 0.4300000000000004 0.4999999999999996 0.35
  endloop
endfacet
facet normal 1.0 -3.8715429977878716e-15 -1.0430699971013098e-16
  outer loop
    vertex 0.4300000000000004 0.4999999999999996 0.82
    vertex 0.4300000000000002 0.5 1.127986593019159e-17
    vertex 0.4300000000000004 0.5149999999999997 0.82
  endloop
endfacet
facet normal 1.0 -3.8715429977878716e-15 -1.0430699971013098e-16
  outer loop
    vertex 0.4300000000000004 0.5149999999999997 0.82
    vertex 0.4300000000000002 0.5 1.127986593019159e-17
    vertex 0.4300000000000004 0.5149999999999998 -5.639932965095795e-18
  endloop
endfacet
facet normal -0.8479983040050879 0.5299989400031803 1.2737180698786907e-16
  outer loop
    vertex 0.3350000000000002 0.4599999999999998 0.54
    vertex 0.23500000000000013 0.2999999999999997 0.5266274169979699
    vertex 0.23500000000000013 0.2999999999999997 0.5533725830020304
  endloop
endfacet
facet normal 0.8479983040050882 0.5299989400031799 1.2737180698783409e-16
  outer loop
    vertex 0.055000000000000146 0.4599999999999998 0.54
    vertex 0.15500000000000014 0.2999999999999997 0.5533725830020304
    vertex 0.15500000000000014 0.2999999999999997 0.5266274169979699
  endloop
endfacet
facet normal 0.9659258262890682 -0.2588190451025208 -5.254918617023565e-17
  outer loop
    vertex 0.3310892242733505 0.0898791974585588 -0.015000000000000048
    vertex 0.4450000000000004 0.5149999999999997 0.835
    vertex 0.3310892242733505 0.08987919745855862 0.835
  endloop
endfacet
facet normal 0.9659258262890682 -0.2588190451025208 -5.254918617023565e-17
  outer loop
    vertex 0.4450000000000004 0.5149999999999997 0.835
    vertex 0.3310892242733505 0.0898791974585588 -0.015000000000000048
    vertex 0.4450000000000004 0.5149999999999998 -0.015000000000000006
  endloop
endfacet
facet normal -0.9659258262890684 -0.2588190451025208 0.0
  outer loop
    vertex -0.054999999999999945 0.515 0.835
    vertex 0.058910775726649954 0.08987919745855898 -0.015000000000000048
    vertex 0.058910775726649954 0.08987919745855898 0.835
  endloop
endfacet
facet normal -0.9659258262890684 -0.2588190451025208 0.0
  outer loop
    vertex 0.058910775726649954 0.08987919745855898 -0.015000000000000048
    vertex -0.054999999999999945 0.515 0.835
    vertex -0.054999999999999945 0.515 -0.015000000000000006
  endloop
endfacet
facet normal -1.2013583661338495e-17 -0.350096695155408 0.936713565633199
  outer loop
    vertex 0.30525000000000024 0.39999999999999963 0.652625
    vertex 0.31000000000000044 0.4999999999999996 0.6900000000000001
    vertex 0.1950000000000002 0.4999999999999996 0.6900000000000001
  endloop
endfacet
facet normal -1.2013583661338495e-17 -0.350096695155408 0.936713565633199
  outer loop
    vertex 0.31000000000000044 0.4999999999999996 0.6900000000000001
    vertex 0.30525000000000024 0.39999999999999963 0.652625
    vertex 0.3900000000000004 0.4999999999999996 0.6900000000000001
  endloop
endfacet
facet normal 3.604075098401548e-18 -0.35009669515540803 0.936713565633199
  outer loop
    vertex 0.08475000000000009 0.39999999999999963 0.652625
    vertex 0.07999999999999999 0.4999999999999996 0.6900000000000001
    vertex 5.206091967780735e-18 0.4999999999999996 0.6900000000000001
  endloop
endfacet
facet normal 3.604075098401548e-18 -0.35009669515540803 0.936713565633199
  outer loop
    vertex 0.07999999999999999 0.4999999999999996 0.6900000000000001
    vertex 0.08475000000000009 0.39999999999999963 0.652625
    vertex 0.1950000000000002 0.4999999999999996 0.6900000000000001
  endloop
endfacet
facet normal 0.4987576728607259 -0.708859342553307 0.4987576728607257
  outer loop
    vertex 0.30525000000000024 0.39999999999999963 0.652625
    vertex 0.2205000000000001 0.29999999999999966 0.5952500000000002
    vertex 0.25450000000000017 0.29999999999999966 0.56125
  endloop
endfacet
facet normal -0.4987576728607264 -0.7088593425533068 0.49875767286072525
  outer loop
    vertex 0.08475000000000009 0.39999999999999963 0.652625
    vertex 0.13550000000000015 0.29999999999999966 0.56125
    vertex 0.16950000000000018 0.29999999999999966 0.5952500000000002
  endloop
endfacet
facet normal -5.464166454249819e-18 -0.3500966951554094 -0.9367135656331984
  outer loop
    vertex 0.19500000000000017 0.4999999999999996 0.39
    vertex 0.0847500000000001 0.39999999999999963 0.42737500000000017
    vertex 4.511946372076636e-17 0.4999999999999996 0.39
  endloop
endfacet
facet normal 8.196249681374729e-18 -0.3500966951554094 -0.9367135656331984
  outer loop
    vertex 0.3900000000000003 0.4999999999999996 0.39
    vertex 0.3052500000000002 0.39999999999999963 0.42737500000000017
    vertex 0.19500000000000017 0.4999999999999996 0.39
  endloop
endfacet
facet normal 0.4987576728607255 -0.7088593425533072 -0.4987576728607259
  outer loop
    vertex 0.25450000000000017 0.29999999999999966 0.5187500000000003
    vertex 0.2205000000000001 0.29999999999999966 0.48475000000000024
    vertex 0.3052500000000002 0.39999999999999963 0.42737500000000017
  endloop
endfacet
facet normal -0.49875767286072553 -0.7088593425533072 -0.49875767286072553
  outer loop
    vertex 0.13550000000000015 0.29999999999999966 0.5187500000000003
    vertex 0.0847500000000001 0.39999999999999963 0.42737500000000017
    vertex 0.16950000000000018 0.29999999999999966 0.48475000000000024
  endloop
endfacet
facet normal 0.21945837947548813 -0.05101700082195003 -0.9742870651430849
  outer loop
    vertex 0.19506250000000025 0.3749999999999996 0.5760000000000003
    vertex 0.17762741699796974 0.2999999999999997 0.5760000000000003
    vertex 0.055000000000000146 0.4599999999999998 0.54
  endloop
endfacet
facet normal 0.07601369957877262 -0.2800504721323207 -0.9569710813471911
  outer loop
    vertex 0.19506250000000025 0.3749999999999996 0.5760000000000003
    vertex 0.055000000000000146 0.4599999999999998 0.54
    vertex 0.19500000000000017 0.4979999999999997 0.54
  endloop
endfacet
facet normal -0.07603290371281314 -0.2801212242051017 -0.9569488477984773
  outer loop
    vertex 0.3350000000000002 0.4599999999999998 0.54
    vertex 0.19506250000000025 0.3749999999999996 0.5760000000000003
    vertex 0.19500000000000017 0.4979999999999997 0.54
  endloop
endfacet
facet normal -0.21981059826294225 -0.050732529342099535 -0.9742225163471848
  outer loop
    vertex 0.3350000000000002 0.4599999999999998 0.54
    vertex 0.2123725830020305 0.2999999999999997 0.5760000000000003
    vertex 0.19506250000000025 0.3749999999999996 0.5760000000000003
  endloop
endfacet
facet normal 0.21998711465697865 -0.050589946925647424 0.9741900875367997
  outer loop
    vertex 0.1948750000000008 0.3749999999999996 0.5039999999999997
    vertex 0.055000000000000146 0.4599999999999998 0.54
    vertex 0.17762741699796974 0.2999999999999997 0.5039999999999997
  endloop
endfacet
facet normal 0.07604250925165434 -0.28015661303241124 0.9569377247036089
  outer loop
    vertex 0.19500000000000017 0.4979999999999997 0.54
    vertex 0.055000000000000146 0.4599999999999998 0.54
    vertex 0.1948750000000008 0.3749999999999996 0.5039999999999997
  endloop
endfacet
facet normal -0.07600410098198898 -0.2800151088810127 0.9569821918051946
  outer loop
    vertex 0.3350000000000002 0.4599999999999998 0.54
    vertex 0.19500000000000017 0.4979999999999997 0.54
    vertex 0.1948750000000008 0.3749999999999996 0.5039999999999997
  endloop
endfacet
facet normal -0.21928267588910888 -0.0511588909636914 0.9743191858576311
  outer loop
    vertex 0.3350000000000002 0.4599999999999998 0.54
    vertex 0.1948750000000008 0.3749999999999996 0.5039999999999997
    vertex 0.2123725830020305 0.2999999999999997 0.5039999999999997
  endloop
endfacet
facet normal -0.19805825007739117 -0.5272022055371309 0.8263357453560064
  outer loop
    vertex 0.30525000000000024 0.39999999999999963 0.652625
    vertex 0.1950000000000002 0.4999999999999996 0.6900000000000001
    vertex 0.19500000000000015 0.37499999999999967 0.6102500000000002
  endloop
endfacet
facet normal 0.19805825007739108 -0.5272022055371312 0.8263357453560062
  outer loop
    vertex 0.1950000000000002 0.4999999999999996 0.6900000000000001
    vertex 0.08475000000000009 0.39999999999999963 0.652625
    vertex 0.19500000000000015 0.37499999999999967 0.6102500000000002
  endloop
endfacet
facet normal 0.2881177933468038 -0.2810449351422377 0.9154244270216216
  outer loop
    vertex 0.19500000000000015 0.37499999999999967 0.6102500000000002
    vertex 0.08475000000000009 0.39999999999999963 0.652625
    vertex 0.16950000000000018 0.29999999999999966 0.5952500000000002
  endloop
endfacet
facet normal -0.2881177933468037 -0.2810449351422377 0.9154244270216216
  outer loop
    vertex 0.30525000000000024 0.39999999999999963 0.652625
    vertex 0.19500000000000015 0.37499999999999967 0.6102500000000002
    vertex 0.2205000000000001 0.29999999999999966 0.5952500000000002
  endloop
endfacet
facet normal -0.0 -0.19611613513818427 0.9805806756909201
  outer loop
    vertex 0.2205000000000001 0.29999999999999966 0.5952500000000002
    vertex 0.19500000000000015 0.37499999999999967 0.6102500000000002
    vertex 0.16950000000000018 0.29999999999999966 0.5952500000000002
  endloop
endfacet
facet normal 0.0 -0.19611613513818427 -0.9805806756909201
  outer loop
    vertex 0.2205000000000001 0.29999999999999966 0.48475000000000024
    vertex 0.16950000000000018 0.29999999999999966 0.48475000000000024
    vertex 0.19500000000000015 0.37499999999999967 0.4697500000000002
  endloop
endfacet
facet normal 0.28811779334680515 -0.281044935142238 -0.9154244270216211
  outer loop
    vertex 0.19500000000000015 0.37499999999999967 0.4697500000000002
    vertex 0.16950000000000018 0.29999999999999966 0.48475000000000024
    vertex 0.0847500000000001 0.39999999999999963 0.42737500000000017
  endloop
endfacet
facet normal 0.19805825007739167 -0.5272022055371327 -0.826335745356005
  outer loop
    vertex 0.19500000000000017 0.4999999999999996 0.39
    vertex 0.19500000000000015 0.37499999999999967 0.4697500000000002
    vertex 0.0847500000000001 0.39999999999999963 0.42737500000000017
  endloop
endfacet
facet normal -0.2881177933468051 -0.2810449351422381 -0.9154244270216211
  outer loop
    vertex 0.3052500000000002 0.39999999999999963 0.42737500000000017
    vertex 0.2205000000000001 0.29999999999999966 0.48475000000000024
    vertex 0.19500000000000015 0.37499999999999967 0.4697500000000002
  endloop
endfacet
facet normal -0.1980582500773916 -0.5272022055371326 -0.826335745356005
  outer loop
    vertex 0.3052500000000002 0.39999999999999963 0.42737500000000017
    vertex 0.19500000000000015 0.37499999999999967 0.4697500000000002
    vertex 0.19500000000000017 0.4999999999999996 0.39
  endloop
endfacet
facet normal -0.0 1.0 -0.0
  outer loop
    vertex 0.17400000000000024 0.28899999999999965 0.5340979797464469
    vertex 0.20440202025355347 0.28899999999999965 0.5225
    vertex 0.18559797974644696 0.28899999999999965 0.5225
  endloop
endfacet
facet normal -0.0 1.0 -0.0
  outer loop
    vertex 0.20440202025355347 0.28899999999999965 0.5225
    vertex 0.17400000000000024 0.28899999999999965 0.5340979797464469
    vertex 0.2160000000000001 0.28899999999999965 0.5340979797464469
  endloop
endfacet
facet normal -0.0 1.0 -0.0
  outer loop
    vertex 0.2160000000000001 0.28899999999999965 0.5340979797464469
    vertex 0.17400000000000024 0.28899999999999965 0.5340979797464469
    vertex 0.17400000000000024 0.28899999999999965 0.5459020202535535
  endloop
endfacet
facet normal -0.0 1.0 -0.0
  outer loop
    vertex 0.2160000000000001 0.28899999999999965 0.5340979797464469
    vertex 0.17400000000000024 0.28899999999999965 0.5459020202535535
    vertex 0.2160000000000001 0.28899999999999965 0.5459020202535535
  endloop
endfacet
facet normal -0.0 1.0 -0.0
  outer loop
    vertex 0.2160000000000001 0.28899999999999965 0.5459020202535535
    vertex 0.17400000000000024 0.28899999999999965 0.5459020202535535
    vertex 0.18559797974644696 0.28899999999999965 0.5575000000000003
  endloop
endfacet
facet normal -0.0 1.0 -0.0
  outer loop
    vertex 0.2160000000000001 0.28899999999999965 0.5459020202535535
    vertex 0.18559797974644696 0.28899999999999965 0.5575000000000003
    vertex 0.20440202025355347 0.28899999999999965 0.5575000000000003
  endloop
endfacet
facet normal -0.501036270541707 0.865426285481125 1.4907604622793275e-16
  outer loop
    vertex 0.23500000000000013 0.2999999999999997 0.5533725830020304
    vertex 0.2160000000000001 0.28899999999999965 0.5340979797464469
    vertex 0.2160000000000001 0.28899999999999965 0.5459020202535535
  endloop
endfacet
facet normal -0.5010362705417067 0.865426285481125 -2.903879912868282e-17
  outer loop
    vertex 0.23500000000000013 0.2999999999999997 0.5533725830020304
    vertex 0.23500000000000013 0.2999999999999997 0.5266274169979699
    vertex 0.2160000000000001 0.28899999999999965 0.5340979797464469
  endloop
endfacet
facet normal 0.3582680464605867 0.8621415276917352 0.35826804646057414
  outer loop
    vertex 0.18559797974644696 0.28899999999999965 0.5225
    vertex 0.17762741699796974 0.2999999999999997 0.5039999999999997
    vertex 0.16611236166328244 0.2999999999999997 0.5155150553346874
  endloop
endfacet
facet normal 0.3582680464605871 0.8621415276917354 0.3582680464605731
  outer loop
    vertex 0.15862741699796953 0.2999999999999997 0.5230000000000006
    vertex 0.18559797974644696 0.28899999999999965 0.5225
    vertex 0.16611236166328244 0.2999999999999997 0.5155150553346874
  endloop
endfacet
facet normal 0.3582680464605846 0.8621415276917281 0.35826804646059335
  outer loop
    vertex 0.15500000000000014 0.2999999999999997 0.5266274169979699
    vertex 0.18559797974644696 0.28899999999999965 0.5225
    vertex 0.15862741699796953 0.2999999999999997 0.5230000000000006
  endloop
endfacet
facet normal 0.35826804646058474 0.862141527691735 0.3582680464605764
  outer loop
    vertex 0.17400000000000024 0.28899999999999965 0.5340979797464469
    vertex 0.18559797974644696 0.28899999999999965 0.5225
    vertex 0.15500000000000014 0.2999999999999997 0.5266274169979699
  endloop
endfacet
facet normal -0.6603664352511157 0.3575364909872581 -0.6603664352511054
  outer loop
    vertex 0.3350000000000002 0.4599999999999998 0.54
    vertex 0.22388763833671746 0.2999999999999997 0.5644849446653132
    vertex 0.2123725830020305 0.2999999999999997 0.5760000000000003
  endloop
endfacet
facet normal -0.6603664352511215 0.35753649098725543 -0.6603664352511011
  outer loop
    vertex 0.3350000000000002 0.4599999999999998 0.54
    vertex 0.23137258300203054 0.2999999999999997 0.5570000000000004
    vertex 0.22388763833671746 0.2999999999999997 0.5644849446653132
  endloop
endfacet
facet normal -0.6603664352511426 0.35753649098728035 -0.6603664352510665
  outer loop
    vertex 0.3350000000000002 0.4599999999999998 0.54
    vertex 0.23500000000000013 0.2999999999999997 0.5533725830020304
    vertex 0.23137258300203054 0.2999999999999997 0.5570000000000004
  endloop
endfacet
facet normal -0.660366435248105 0.35753649098528806 0.6603664352551828
  outer loop
    vertex 0.3350000000000002 0.4599999999999998 0.54
    vertex 0.23432716642254903 0.2999999999999997 0.5259545834205185
    vertex 0.23500000000000013 0.2999999999999997 0.5266274169979699
  endloop
endfacet
facet normal -0.6603664352510856 0.35753649098723533 0.6603664352511479
  outer loop
    vertex 0.3350000000000002 0.4599999999999998 0.54
    vertex 0.2313725830020308 0.2999999999999997 0.5230000000000006
    vertex 0.23432716642254903 0.2999999999999997 0.5259545834205185
  endloop
endfacet
facet normal -0.66036643525112 0.35753649098726337 0.6603664352510982
  outer loop
    vertex 0.3350000000000002 0.4599999999999998 0.54
    vertex 0.2123725830020305 0.2999999999999997 0.5039999999999997
    vertex 0.2313725830020308 0.2999999999999997 0.5230000000000006
  endloop
endfacet
facet normal -3.1910264693714485e-17 0.8595358880206627 0.511075392877148
  outer loop
    vertex 0.18559797974644696 0.28899999999999965 0.5225
    vertex 0.1949000000000007 0.2999999999999997 0.5039999999999997
    vertex 0.17762741699796974 0.2999999999999997 0.5039999999999997
  endloop
endfacet
facet normal -7.692625369632449e-18 0.8595358880206625 0.511075392877148
  outer loop
    vertex 0.20440202025355347 0.28899999999999965 0.5225
    vertex 0.1949000000000007 0.2999999999999997 0.5039999999999997
    vertex 0.18559797974644696 0.28899999999999965 0.5225
  endloop
endfacet
facet normal -2.2274231198781377e-17 0.8595358880206625 0.511075392877148
  outer loop
    vertex 0.20440202025355347 0.28899999999999965 0.5225
    vertex 0.2123725830020305 0.2999999999999997 0.5039999999999997
    vertex 0.1949000000000007 0.2999999999999997 0.5039999999999997
  endloop
endfacet
facet normal -4.45484623975602e-18 0.8595358880206593 -0.5110753928771535
  outer loop
    vertex 0.19510000000000025 0.2999999999999997 0.5760000000000003
    vertex 0.18559797974644696 0.28899999999999965 0.5575000000000003
    vertex 0.17762741699796974 0.2999999999999997 0.5760000000000003
  endloop
endfacet
facet normal -1.9231563424081615e-18 0.8595358880206593 -0.5110753928771535
  outer loop
    vertex 0.19510000000000025 0.2999999999999997 0.5760000000000003
    vertex 0.20440202025355347 0.28899999999999965 0.5575000000000003
    vertex 0.18559797974644696 0.28899999999999965 0.5575000000000003
  endloop
endfacet
facet normal -9.117218483919418e-18 0.8595358880206593 -0.5110753928771534
  outer loop
    vertex 0.2123725830020305 0.2999999999999997 0.5760000000000003
    vertex 0.20440202025355347 0.28899999999999965 0.5575000000000003
    vertex 0.19510000000000025 0.2999999999999997 0.5760000000000003
  endloop
endfacet
facet normal -0.35826804646058535 0.8621415276917332 -0.3582680464605797
  outer loop
    vertex 0.20440202025355347 0.28899999999999965 0.5575000000000003
    vertex 0.23500000000000013 0.2999999999999997 0.5533725830020304
    vertex 0.2160000000000001 0.28899999999999965 0.5459020202535535
  endloop
endfacet
facet normal -0.35826804646058574 0.8621415276917457 -0.35826804646054994
  outer loop
    vertex 0.20440202025355347 0.28899999999999965 0.5575000000000003
    vertex 0.23137258300203054 0.2999999999999997 0.5570000000000004
    vertex 0.23500000000000013 0.2999999999999997 0.5533725830020304
  endloop
endfacet
facet normal -0.35826804646057997 0.8621415276917291 -0.35826804646059507
  outer loop
    vertex 0.22388763833671746 0.2999999999999997 0.5644849446653132
    vertex 0.23137258300203054 0.2999999999999997 0.5570000000000004
    vertex 0.20440202025355347 0.28899999999999965 0.5575000000000003
  endloop
endfacet
facet normal -0.3582680464605867 0.8621415276917324 -0.35826804646058114
  outer loop
    vertex 0.2123725830020305 0.2999999999999997 0.5760000000000003
    vertex 0.22388763833671746 0.2999999999999997 0.5644849446653132
    vertex 0.20440202025355347 0.28899999999999965 0.5575000000000003
  endloop
endfacet
facet normal -0.3582680464605875 0.8621415276917339 0.3582680464605764
  outer loop
    vertex 0.2313725830020308 0.2999999999999997 0.5230000000000006
    vertex 0.2123725830020305 0.2999999999999997 0.5039999999999997
    vertex 0.20440202025355347 0.28899999999999965 0.5225
  endloop
endfacet
facet normal -0.3582680464605819 0.8621415276917186 0.358268046460619
  outer loop
    vertex 0.23432716642254903 0.2999999999999997 0.5259545834205185
    vertex 0.2313725830020308 0.2999999999999997 0.5230000000000006
    vertex 0.20440202025355347 0.28899999999999965 0.5225
  endloop
endfacet
facet normal -0.3582680464605842 0.8621415276917945 0.35826804646043403
  outer loop
    vertex 0.23500000000000013 0.2999999999999997 0.5266274169979699
    vertex 0.23432716642254903 0.2999999999999997 0.5259545834205185
    vertex 0.20440202025355347 0.28899999999999965 0.5225
  endloop
endfacet
facet normal -0.3582680464605864 0.8621415276917349 0.3582680464605752
  outer loop
    vertex 0.2160000000000001 0.28899999999999965 0.5340979797464469
    vertex 0.23500000000000013 0.2999999999999997 0.5266274169979699
    vertex 0.20440202025355347 0.28899999999999965 0.5225
  endloop
endfacet
facet normal 0.3582680464605837 0.8621415276917335 -0.35826804646058097
  outer loop
    vertex 0.18559797974644696 0.28899999999999965 0.5575000000000003
    vertex 0.17400000000000024 0.28899999999999965 0.5459020202535535
    vertex 0.15500000000000014 0.2999999999999997 0.5533725830020304
  endloop
endfacet
facet normal 0.3582680464605846 0.86214152769181 -0.3582680464603962
  outer loop
    vertex 0.18559797974644696 0.28899999999999965 0.5575000000000003
    vertex 0.15500000000000014 0.2999999999999997 0.5533725830020304
    vertex 0.15567283357745146 0.2999999999999997 0.5540454165794821
  endloop
endfacet
facet normal 0.35826804646057986 0.8621415276917332 -0.35826804646058524
  outer loop
    vertex 0.18559797974644696 0.28899999999999965 0.5575000000000003
    vertex 0.15567283357745146 0.2999999999999997 0.5540454165794821
    vertex 0.15862741699796976 0.2999999999999997 0.5570000000000004
  endloop
endfacet
facet normal 0.35826804646058036 0.8621415276917346 -0.35826804646058164
  outer loop
    vertex 0.17762741699796974 0.2999999999999997 0.5760000000000003
    vertex 0.18559797974644696 0.28899999999999965 0.5575000000000003
    vertex 0.15862741699796976 0.2999999999999997 0.5570000000000004
  endloop
endfacet
facet normal -0.0 -0.0 1.0
  outer loop
    vertex 0.1949000000000007 0.2999999999999997 0.5039999999999997
    vertex 0.1948750000000008 0.3749999999999996 0.5039999999999997
    vertex 0.17762741699796974 0.2999999999999997 0.5039999999999997
  endloop
endfacet
facet normal -0.0 -0.0 1.0
  outer loop
    vertex 0.2123725830020305 0.2999999999999997 0.5039999999999997
    vertex 0.1948750000000008 0.3749999999999996 0.5039999999999997
    vertex 0.1949000000000007 0.2999999999999997 0.5039999999999997
  endloop
endfacet
facet normal 0.5010362705417057 0.8654262854811257 -1.4907604622793178e-16
  outer loop
    vertex 0.17400000000000024 0.28899999999999965 0.5459020202535535
    vertex 0.17400000000000024 0.28899999999999965 0.5340979797464469
    vertex 0.15500000000000014 0.2999999999999997 0.5266274169979699
  endloop
endfacet
facet normal 0.5010362705417055 0.8654262854811259 -0.0
  outer loop
    vertex 0.15500000000000014 0.2999999999999997 0.5533725830020304
    vertex 0.17400000000000024 0.28899999999999965 0.5459020202535535
    vertex 0.15500000000000014 0.2999999999999997 0.5266274169979699
  endloop
endfacet
facet normal 0.6603664352511195 0.35753649098726203 0.6603664352510994
  outer loop
    vertex 0.055000000000000146 0.4599999999999998 0.54
    vertex 0.16611236166328244 0.2999999999999997 0.5155150553346874
    vertex 0.17762741699796974 0.2999999999999997 0.5039999999999997
  endloop
endfacet
facet normal 0.6603664352511195 0.35753649098726203 0.6603664352510994
  outer loop
    vertex 0.16611236166328244 0.2999999999999997 0.5155150553346874
    vertex 0.055000000000000146 0.4599999999999998 0.54
    vertex 0.15862741699796953 0.2999999999999997 0.5230000000000006
  endloop
endfacet
facet normal 0.6603664352511195 0.35753649098726203 0.6603664352510994
  outer loop
    vertex 0.15862741699796953 0.2999999999999997 0.5230000000000006
    vertex 0.055000000000000146 0.4599999999999998 0.54
    vertex 0.15500000000000014 0.2999999999999997 0.5266274169979699
  endloop
endfacet
facet normal 0.6603664352511124 0.3575364909872539 -0.6603664352511112
  outer loop
    vertex 0.055000000000000146 0.4599999999999998 0.54
    vertex 0.15567283357745146 0.2999999999999997 0.5540454165794821
    vertex 0.15500000000000014 0.2999999999999997 0.5533725830020304
  endloop
endfacet
facet normal 0.6603664352511124 0.3575364909872539 -0.6603664352511112
  outer loop
    vertex 0.15567283357745146 0.2999999999999997 0.5540454165794821
    vertex 0.055000000000000146 0.4599999999999998 0.54
    vertex 0.15862741699796976 0.2999999999999997 0.5570000000000004
  endloop
endfacet
facet normal 0.6603664352511124 0.3575364909872539 -0.6603664352511112
  outer loop
    vertex 0.15862741699796976 0.2999999999999997 0.5570000000000004
    vertex 0.055000000000000146 0.4599999999999998 0.54
    vertex 0.17762741699796974 0.2999999999999997 0.5760000000000003
  endloop
endfacet
facet normal -0.623911365823107 -0.6755862470016984 -0.39283308218492147
  outer loop
    vertex 0.06775000000000009 0.39999999999999963 0.4543750000000001
    vertex 4.511946372076636e-17 0.4999999999999996 0.39
    vertex 0.0847500000000001 0.39999999999999963 0.42737500000000017
  endloop
endfacet
facet normal -0.6239113658231079 -0.6755862470016984 0.3928330821849201
  outer loop
    vertex 5.206091967780735e-18 0.4999999999999996 0.6900000000000001
    vertex 0.06775000000000007 0.39999999999999963 0.625625
    vertex 0.08475000000000009 0.39999999999999963 0.652625
  endloop
endfacet
facet normal 0.6239113658231058 -0.6755862470016992 -0.392833082184922
  outer loop
    vertex 0.25450000000000017 0.29999999999999966 0.5187500000000003
    vertex 0.3052500000000002 0.39999999999999963 0.42737500000000017
    vertex 0.3222500000000003 0.39999999999999963 0.4543750000000001
  endloop
endfacet
facet normal 0.6239113658231072 -0.6755862470016987 0.392833082184921
  outer loop
    vertex 0.30525000000000024 0.39999999999999963 0.652625
    vertex 0.25450000000000017 0.29999999999999966 0.56125
    vertex 0.32225000000000037 0.39999999999999963 0.625625
  endloop
endfacet
facet normal 0.0 0.0 -1.0
  outer loop
    vertex 0.19510000000000025 0.2999999999999997 0.5760000000000003
    vertex 0.17762741699796974 0.2999999999999997 0.5760000000000003
    vertex 0.19506250000000025 0.3749999999999996 0.5760000000000003
  endloop
endfacet
facet normal 0.0 0.0 -1.0
  outer loop
    vertex 0.2123725830020305 0.2999999999999997 0.5760000000000003
    vertex 0.19510000000000025 0.2999999999999997 0.5760000000000003
    vertex 0.19506250000000025 0.3749999999999996 0.5760000000000003
  endloop
endfacet
facet normal 1.80108930395286e-18 0.09950371902099919 0.9950371902099893
  outer loop
    vertex 0.1700000000000002 0.29999999999999966 0.7100000000000001
    vertex 0.1950000000000002 0.4999999999999996 0.6900000000000001
    vertex 0.07999999999999999 0.4999999999999996 0.6900000000000001
  endloop
endfacet
facet normal 1.80108930395286e-18 0.09950371902099919 0.9950371902099893
  outer loop
    vertex 0.1950000000000002 0.4999999999999996 0.6900000000000001
    vertex 0.1700000000000002 0.29999999999999966 0.7100000000000001
    vertex 0.22000000000000022 0.29999999999999966 0.7100000000000001
  endloop
endfacet
facet normal 1.80108930395286e-18 0.09950371902099919 0.9950371902099893
  outer loop
    vertex 0.1950000000000002 0.4999999999999996 0.6900000000000001
    vertex 0.22000000000000022 0.29999999999999966 0.7100000000000001
    vertex 0.31000000000000044 0.4999999999999996 0.6900000000000001
  endloop
endfacet
facet normal -5.639932965095795e-16 1.0 -5.013273746751815e-16
  outer loop
    vertex 0.31000000000000044 0.4999999999999996 0.78
    vertex 0.3900000000000004 0.4999999999999996 0.6900000000000001
    vertex 0.31000000000000044 0.4999999999999996 0.6900000000000001
  endloop
endfacet
facet normal -5.639932965095795e-16 1.0 -5.013273746751815e-16
  outer loop
    vertex 0.3900000000000004 0.4999999999999996 0.6900000000000001
    vertex 0.31000000000000044 0.4999999999999996 0.78
    vertex 0.39000000000000046 0.4999999999999997 0.78
  endloop
endfacet
facet normal 0.9119215051751062 0.41036467732879855 -3.845154945453472e-16
  outer loop
    vertex 0.07999999999999999 0.4999999999999996 0.6900000000000001
    vertex 0.1700000000000002 0.29999999999999966 0.76
    vertex 0.1700000000000002 0.29999999999999966 0.7100000000000001
  endloop
endfacet
facet normal 0.9119215051751062 0.41036467732879855 -3.845154945453472e-16
  outer loop
    vertex 0.1700000000000002 0.29999999999999966 0.76
    vertex 0.07999999999999999 0.4999999999999996 0.6900000000000001
    vertex 0.08 0.4999999999999997 0.78
  endloop
endfacet
facet normal -0.9119215051751062 0.4103646773287986 6.655075867130959e-17
  outer loop
    vertex 0.31000000000000044 0.4999999999999996 0.78
    vertex 0.22000000000000022 0.29999999999999966 0.7100000000000001
    vertex 0.22000000000000022 0.29999999999999966 0.76
  endloop
endfacet
facet normal -0.9119215051751062 0.4103646773287986 6.655075867130959e-17
  outer loop
    vertex 0.22000000000000022 0.29999999999999966 0.7100000000000001
    vertex 0.31000000000000044 0.4999999999999996 0.78
    vertex 0.31000000000000044 0.4999999999999996 0.6900000000000001
  endloop
endfacet
facet normal 5.124758175958183e-33 1.0 -1.0026547493503633e-15
  outer loop
    vertex 0.0 0.4999999999999997 0.78
    vertex 0.07999999999999999 0.4999999999999996 0.6900000000000001
    vertex 5.206091967780735e-18 0.4999999999999996 0.6900000000000001
  endloop
endfacet
facet normal 5.124758175958183e-33 1.0 -1.0026547493503633e-15
  outer loop
    vertex 0.07999999999999999 0.4999999999999996 0.6900000000000001
    vertex 0.0 0.4999999999999997 0.78
    vertex 0.08 0.4999999999999997 0.78
  endloop
endfacet
facet normal 7.67990871842831e-16 1.0 -0.0
  outer loop
    vertex -0.040000000000000015 0.5 0.35
    vertex 4.511946372076636e-17 0.4999999999999996 0.39
    vertex 0.4300000000000004 0.4999999999999996 0.35
  endloop
endfacet
facet normal 7.67990871842831e-16 1.0 -0.0
  outer loop
    vertex 4.511946372076636e-17 0.4999999999999996 0.39
    vertex -0.040000000000000015 0.5 0.35
    vertex -0.040000000000000015 0.5 0.82
  endloop
endfacet
facet normal 7.67990871842831e-16 1.0 -0.0
  outer loop
    vertex 4.511946372076636e-17 0.4999999999999996 0.39
    vertex -0.040000000000000015 0.5 0.82
    vertex 5.206091967780735e-18 0.4999999999999996 0.6900000000000001
  endloop
endfacet
facet normal 7.67990871842831e-16 1.0 -0.0
  outer loop
    vertex 5.206091967780735e-18 0.4999999999999996 0.6900000000000001
    vertex -0.040000000000000015 0.5 0.82
    vertex 0.0 0.4999999999999997 0.78
  endloop
endfacet
facet normal 7.67990871842831e-16 1.0 -0.0
  outer loop
    vertex 0.0 0.4999999999999997 0.78
    vertex -0.040000000000000015 0.5 0.82
    vertex 0.08 0.4999999999999997 0.78
  endloop
endfacet
facet normal 7.67990871842831e-16 1.0 -0.0
  outer loop
    vertex 0.08 0.4999999999999997 0.78
    vertex -0.040000000000000015 0.5 0.82
    vertex 0.31000000000000044 0.4999999999999996 0.78
  endloop
endfacet
facet normal 7.67990871842831e-16 1.0 -0.0
  outer loop
    vertex 0.31000000000000044 0.4999999999999996 0.78
    vertex -0.040000000000000015 0.5 0.82
    vertex 0.39000000000000046 0.4999999999999997 0.78
  endloop
endfacet
facet normal 7.67990871842831e-16 1.0 -0.0
  outer loop
    vertex 0.4300000000000004 0.4999999999999996 0.35
    vertex 0.3900000000000003 0.4999999999999996 0.39
    vertex 0.4300000000000004 0.4999999999999996 0.82
  endloop
endfacet
facet normal 7.67990871842831e-16 1.0 -0.0
  outer loop
    vertex 0.3900000000000003 0.4999999999999996 0.39
    vertex 0.4300000000000004 0.4999999999999996 0.35
    vertex 4.511946372076636e-17 0.4999999999999996 0.39
  endloop
endfacet
facet normal 7.67990871842831e-16 1.0 -0.0
  outer loop
    vertex 0.3900000000000003 0.4999999999999996 0.39
    vertex 4.511946372076636e-17 0.4999999999999996 0.39
    vertex 0.19500000000000017 0.4999999999999996 0.39
  endloop
endfacet
facet normal 7.67990871842831e-16 1.0 -0.0
  outer loop
    vertex 0.4300000000000004 0.4999999999999996 0.82
    vertex 0.3900000000000003 0.4999999999999996 0.39
    vertex 0.3900000000000004 0.4999999999999996 0.6900000000000001
  endloop
endfacet
facet normal 7.67990871842831e-16 1.0 -0.0
  outer loop
    vertex 0.4300000000000004 0.4999999999999996 0.82
    vertex 0.3900000000000004 0.4999999999999996 0.6900000000000001
    vertex 0.39000000000000046 0.4999999999999997 0.78
  endloop
endfacet
facet normal 7.67990871842831e-16 1.0 -0.0
  outer loop
    vertex 0.4300000000000004 0.4999999999999996 0.82
    vertex 0.39000000000000046 0.4999999999999997 0.78
    vertex -0.040000000000000015 0.5 0.82
  endloop
endfacet
facet normal -0.9659258262890684 0.2588190451025205 2.1185788188558527e-16
  outer loop
    vertex 0.39000000000000046 0.4999999999999997 0.78
    vertex 0.3055960043841968 0.1849999999999997 0.39
    vertex 0.3055960043841968 0.1849999999999997 0.78
  endloop
endfacet
facet normal -0.9659258262890684 0.2588190451025205 2.1185788188558527e-16
  outer loop
    vertex 0.3055960043841968 0.1849999999999997 0.39
    vertex 0.39000000000000046 0.4999999999999997 0.78
    vertex 0.3900000000000004 0.4999999999999996 0.6900000000000001
  endloop
endfacet
facet normal -0.9659258262890684 0.2588190451025205 2.1185788188558527e-16
  outer loop
    vertex 0.3900000000000003 0.4999999999999996 0.39
    vertex 0.3055960043841968 0.1849999999999997 0.39
    vertex 0.3900000000000004 0.4999999999999996 0.6900000000000001
  endloop
endfacet
facet normal 0.96534956515621 0.26096018288757494 7.939930864265474e-17
  outer loop
    vertex 4.511946372076636e-17 0.4999999999999996 0.39
    vertex 0.08515304774212469 0.18499999999999983 0.78
    vertex 0.0851530477421248 0.18499999999999958 0.39
  endloop
endfacet
facet normal 0.96534956515621 0.26096018288757494 7.939930864265474e-17
  outer loop
    vertex 0.08515304774212469 0.18499999999999983 0.78
    vertex 4.511946372076636e-17 0.4999999999999996 0.39
    vertex 5.206091967780735e-18 0.4999999999999996 0.6900000000000001
  endloop
endfacet
facet normal 0.96534956515621 0.26096018288757494 7.939930864265474e-17
  outer loop
    vertex 0.08515304774212469 0.18499999999999983 0.78
    vertex 5.206091967780735e-18 0.4999999999999996 0.6900000000000001
    vertex 0.0 0.4999999999999997 0.78
  endloop
endfacet
facet normal -0.0 -0.0 1.0
  outer loop
    vertex 0.0851530477421248 0.18499999999999958 0.39
    vertex 0.19500000000000017 0.4999999999999996 0.39
    vertex 4.511946372076636e-17 0.4999999999999996 0.39
  endloop
endfacet
facet normal -0.0 -0.0 1.0
  outer loop
    vertex 0.19500000000000017 0.4999999999999996 0.39
    vertex 0.0851530477421248 0.18499999999999958 0.39
    vertex 0.3055960043841968 0.1849999999999997 0.39
  endloop
endfacet
facet normal -0.0 -0.0 1.0
  outer loop
    vertex 0.19500000000000017 0.4999999999999996 0.39
    vertex 0.3055960043841968 0.1849999999999997 0.39
    vertex 0.3900000000000003 0.4999999999999996 0.39
  endloop
endfacet
facet normal -0.8278876877230688 -0.5608939084323799 -9.392165427358573e-17
  outer loop
    vertex 0.06775000000000007 0.39999999999999963 0.625625
    vertex 0.13550000000000015 0.29999999999999966 0.5187500000000003
    vertex 0.13550000000000015 0.29999999999999966 0.56125
  endloop
endfacet
facet normal -0.8278876877230688 -0.5608939084323799 -9.392165427358573e-17
  outer loop
    vertex 0.13550000000000015 0.29999999999999966 0.5187500000000003
    vertex 0.06775000000000007 0.39999999999999963 0.625625
    vertex 0.06775000000000009 0.39999999999999963 0.4543750000000001
  endloop
endfacet
facet normal 0.827887687723069 -0.5608939084323793 -3.293381444246685e-16
  outer loop
    vertex 0.3900000000000003 0.4999999999999996 0.39
    vertex 0.32225000000000037 0.39999999999999963 0.625625
    vertex 0.3222500000000003 0.39999999999999963 0.4543750000000001
  endloop
endfacet
facet normal 0.827887687723069 -0.5608939084323793 -3.293381444246685e-16
  outer loop
    vertex 0.32225000000000037 0.39999999999999963 0.625625
    vertex 0.3900000000000003 0.4999999999999996 0.39
    vertex 0.3900000000000004 0.4999999999999996 0.6900000000000001
  endloop
endfacet
facet normal -0.0 1.0 -0.0
  outer loop
    vertex 0.11550000000000013 0.29999999999999966 0.4647500000000003
    vertex 0.16950000000000018 0.29999999999999966 0.48475000000000024
    vertex 0.2745000000000002 0.29999999999999966 0.4647500000000003
  endloop
endfacet
facet normal -0.0 1.0 -0.0
  outer loop
    vertex 0.16950000000000018 0.29999999999999966 0.48475000000000024
    vertex 0.11550000000000013 0.29999999999999966 0.4647500000000003
    vertex 0.13550000000000015 0.29999999999999966 0.5187500000000003
  endloop
endfacet
facet normal -0.0 1.0 -0.0
  outer loop
    vertex 0.13550000000000015 0.29999999999999966 0.5187500000000003
    vertex 0.11550000000000013 0.29999999999999966 0.4647500000000003
    vertex 0.11550000000000013 0.29999999999999966 0.6152500000000002
  endloop
endfacet
facet normal -0.0 1.0 -0.0
  outer loop
    vertex 0.13550000000000015 0.29999999999999966 0.5187500000000003
    vertex 0.11550000000000013 0.29999999999999966 0.6152500000000002
    vertex 0.13550000000000015 0.29999999999999966 0.56125
  endloop
endfacet
facet normal -0.0 1.0 -0.0
  outer loop
    vertex 0.13550000000000015 0.29999999999999966 0.56125
    vertex 0.11550000000000013 0.29999999999999966 0.6152500000000002
    vertex 0.16950000000000018 0.29999999999999966 0.5952500000000002
  endloop
endfacet
facet normal -0.0 1.0 -0.0
  outer loop
    vertex 0.16950000000000018 0.29999999999999966 0.5952500000000002
    vertex 0.11550000000000013 0.29999999999999966 0.6152500000000002
    vertex 0.2205000000000001 0.29999999999999966 0.5952500000000002
  endloop
endfacet
facet normal -0.0 1.0 -0.0
  outer loop
    vertex 0.2745000000000002 0.29999999999999966 0.4647500000000003
    vertex 0.25450000000000017 0.29999999999999966 0.5187500000000003
    vertex 0.2745000000000002 0.29999999999999966 0.6152500000000002
  endloop
endfacet
facet normal -0.0 1.0 -0.0
  outer loop
    vertex 0.25450000000000017 0.29999999999999966 0.5187500000000003
    vertex 0.2745000000000002 0.29999999999999966 0.4647500000000003
    vertex 0.2205000000000001 0.29999999999999966 0.48475000000000024
  endloop
endfacet
facet normal -0.0 1.0 -0.0
  outer loop
    vertex 0.2205000000000001 0.29999999999999966 0.48475000000000024
    vertex 0.2745000000000002 0.29999999999999966 0.4647500000000003
    vertex 0.16950000000000018 0.29999999999999966 0.48475000000000024
  endloop
endfacet
facet normal -0.0 1.0 -0.0
  outer loop
    vertex 0.2745000000000002 0.29999999999999966 0.6152500000000002
    vertex 0.25450000000000017 0.29999999999999966 0.5187500000000003
    vertex 0.25450000000000017 0.29999999999999966 0.56125
  endloop
endfacet
facet normal -0.0 1.0 -0.0
  outer loop
    vertex 0.2745000000000002 0.29999999999999966 0.6152500000000002
    vertex 0.25450000000000017 0.29999999999999966 0.56125
    vertex 0.2205000000000001 0.29999999999999966 0.5952500000000002
  endloop
endfacet
facet normal -0.0 1.0 -0.0
  outer loop
    vertex 0.2745000000000002 0.29999999999999966 0.6152500000000002
    vertex 0.2205000000000001 0.29999999999999966 0.5952500000000002
    vertex 0.11550000000000013 0.29999999999999966 0.6152500000000002
  endloop
endfacet
facet normal 0.8278876877230684 -0.5608939084323802 -1.9812878680872806e-16
  outer loop
    vertex 0.3222500000000003 0.39999999999999963 0.4543750000000001
    vertex 0.25450000000000017 0.29999999999999966 0.56125
    vertex 0.25450000000000017 0.29999999999999966 0.5187500000000003
  endloop
endfacet
facet normal 0.8278876877230684 -0.5608939084323802 -1.9812878680872806e-16
  outer loop
    vertex 0.25450000000000017 0.29999999999999966 0.56125
    vertex 0.3222500000000003 0.39999999999999963 0.4543750000000001
    vertex 0.32225000000000037 0.39999999999999963 0.625625
  endloop
endfacet
facet normal 0.6239113658231067 -0.6755862470016987 -0.3928330821849216
  outer loop
    vertex 0.3222500000000003 0.39999999999999963 0.4543750000000001
    vertex 0.3052500000000002 0.39999999999999963 0.42737500000000017
    vertex 0.3900000000000003 0.4999999999999996 0.39
  endloop
endfacet
facet normal 0.6239113658231069 -0.6755862470016987 0.3928330821849215
  outer loop
    vertex 0.3900000000000004 0.4999999999999996 0.6900000000000001
    vertex 0.30525000000000024 0.39999999999999963 0.652625
    vertex 0.32225000000000037 0.39999999999999963 0.625625
  endloop
endfacet
facet normal -0.8278876877230689 -0.5608939084323796 -1.1465610918888753e-16
  outer loop
    vertex 5.206091967780735e-18 0.4999999999999996 0.6900000000000001
    vertex 0.06775000000000009 0.39999999999999963 0.4543750000000001
    vertex 0.06775000000000007 0.39999999999999963 0.625625
  endloop
endfacet
facet normal -0.8278876877230689 -0.5608939084323796 -1.1465610918888753e-16
  outer loop
    vertex 0.06775000000000009 0.39999999999999963 0.4543750000000001
    vertex 5.206091967780735e-18 0.4999999999999996 0.6900000000000001
    vertex 4.511946372076636e-17 0.4999999999999996 0.39
  endloop
endfacet
facet normal -0.6239113658231066 -0.6755862470016991 -0.39283308218492113
  outer loop
    vertex 0.13550000000000015 0.29999999999999966 0.5187500000000003
    vertex 0.06775000000000009 0.39999999999999963 0.4543750000000001
    vertex 0.0847500000000001 0.39999999999999963 0.42737500000000017
  endloop
endfacet
facet normal -0.6239113658231076 -0.6755862470016986 0.3928330821849205
  outer loop
    vertex 0.08475000000000009 0.39999999999999963 0.652625
    vertex 0.06775000000000007 0.39999999999999963 0.625625
    vertex 0.13550000000000015 0.29999999999999966 0.56125
  endloop
endfacet
endsolid 12zoll_midlow_folded_1_einzelteile_v8_horn2_einteil
